<svg width="49" height="57" viewBox="0 0 49 57" fill="none" xmlns="http://www.w3.org/2000/svg">
<mask id="mask0_204_2" style="mask-type:alpha" maskUnits="userSpaceOnUse" x="3" y="0" width="40" height="36">
<path d="M24.3199 26.5651L37.1499 35.9885L42.4755 31.5011L41.5879 7.00025L23.4323 0L7.29397 4.48734L3.58215 20.193L11.4092 35.9885L24.3199 26.5651Z" fill="#D9D9D9"/>
</mask>
<g mask="url(#mask0_204_2)">
<mask id="mask1_204_2" style="mask-type:alpha" maskUnits="userSpaceOnUse" x="6" y="2" width="35" height="35">
<circle cx="23.7551" cy="19.6081" r="16.7839" fill="#E0B354"/>
</mask>
<g mask="url(#mask1_204_2)">
<rect x="6.64844" y="2.9856" width="2.25937" height="33.4063" fill="#E0B354"/>
<rect x="10.1989" y="2.9856" width="2.25937" height="33.4063" fill="#E0B354"/>
<rect x="13.7493" y="2.9856" width="2.25937" height="33.4063" fill="#E0B354"/>
<rect x="17.2997" y="2.9856" width="2.25937" height="33.4063" fill="#E0B354"/>
<rect x="20.8501" y="2.9856" width="2.25937" height="33.4063" fill="#E0B354"/>
<rect x="24.4006" y="2.9856" width="2.25937" height="33.4063" fill="#E0B354"/>
<rect x="27.951" y="2.9856" width="2.25937" height="33.4063" fill="#E0B354"/>
<rect x="31.5015" y="2.9856" width="2.25937" height="33.4063" fill="#E0B354"/>
<rect x="35.0519" y="2.9856" width="2.25937" height="33.4063" fill="#E0B354"/>
<rect x="38.6023" y="2.9856" width="2.25937" height="33.4063" fill="#E0B354"/>
</g>
</g>
<path d="M1 39.7383C1.63161 40.3815 3.32324 41.5391 5.03684 41.0246C6.75044 40.5101 18.7676 32.2886 24.562 28.2422" stroke="#D98E73" stroke-width="2"/>
<path d="M47.6398 39.7383C47.0038 40.3815 45.3006 41.5391 43.5753 41.0246C41.8499 40.5101 29.7505 32.2886 23.9164 28.2422" stroke="#D98E73" stroke-width="2"/>
<path d="M1.7262 56H47.559" stroke="#D98E73" stroke-width="2"/>
<path d="M9.06921 39.0547V55.8385H39.5707V39.0547" stroke="#D98E73" stroke-width="2"/>
</svg>
